<?xml version="1.0" encoding="UTF-8" standalone="no"?>
<!-- Created with Inkscape (http://www.inkscape.org/) -->

<svg
   xmlns:dc="http://purl.org/dc/elements/1.1/"
   xmlns:cc="http://creativecommons.org/ns#"
   xmlns:rdf="http://www.w3.org/1999/02/22-rdf-syntax-ns#"
   xmlns:svg="http://www.w3.org/2000/svg"
   xmlns="http://www.w3.org/2000/svg"
   xmlns:sodipodi="http://sodipodi.sourceforge.net/DTD/sodipodi-0.dtd"
   xmlns:inkscape="http://www.inkscape.org/namespaces/inkscape"
   width="66.145828mm"
   height="19.601421mm"
   viewBox="0 0 66.145828 19.601421"
   version="1.1"
   id="svg4103"
   inkscape:version="0.92.4 (f8dce91, 2019-08-02)"
   sodipodi:docname="app-store.svg">
  <defs
     id="defs4097">
    <linearGradient
       id="SVGID_1_"
       gradientUnits="userSpaceOnUse"
       x1="-74.226799"
       y1="1070.9844"
       x2="-74.226799"
       y2="849.33557"
       gradientTransform="translate(0,-759)">
      <stop
         offset="0"
         style="stop-color:#1A1A1A;stop-opacity:0.1"
         id="stop3726" />
      <stop
         offset="0.1235"
         style="stop-color:#212121;stop-opacity:0.1506"
         id="stop3728" />
      <stop
         offset="0.3085"
         style="stop-color:#353535;stop-opacity:0.2265"
         id="stop3730" />
      <stop
         offset="0.5321"
         style="stop-color:#575757;stop-opacity:0.3181"
         id="stop3732" />
      <stop
         offset="0.7834"
         style="stop-color:#858585;stop-opacity:0.4212"
         id="stop3734" />
      <stop
         offset="1"
         style="stop-color:#B3B3B3;stop-opacity:0.51"
         id="stop3736" />
    </linearGradient>
  </defs>
  <sodipodi:namedview
     id="base"
     pagecolor="#ffffff"
     bordercolor="#666666"
     borderopacity="1.0"
     inkscape:pageopacity="0.0"
     inkscape:pageshadow="2"
     inkscape:zoom="0.35"
     inkscape:cx="147.85714"
     inkscape:cy="-237.24366"
     inkscape:document-units="mm"
     inkscape:current-layer="layer1"
     showgrid="false"
     fit-margin-top="0"
     fit-margin-left="0"
     fit-margin-right="0"
     fit-margin-bottom="0"
     inkscape:window-width="1920"
     inkscape:window-height="1025"
     inkscape:window-x="0"
     inkscape:window-y="27"
     inkscape:window-maximized="1" />
  <metadata
     id="metadata4100">
    <rdf:RDF>
      <cc:Work
         rdf:about="">
        <dc:format>image/svg+xml</dc:format>
        <dc:type
           rdf:resource="http://purl.org/dc/dcmitype/StillImage" />
        <dc:title></dc:title>
      </cc:Work>
    </rdf:RDF>
  </metadata>
  <g
     inkscape:label="Layer 1"
     inkscape:groupmode="layer"
     id="layer1"
     transform="translate(-66.712799,-66.461194)">
    <g
       id="g3789"
       transform="matrix(0.07971298,0,0,0.07971298,121.13285,61.247965)"
       inkscape:export-xdpi="96"
       inkscape:export-ydpi="96">
      <path
         style="fill:#ffffff"
         inkscape:connector-curvature="0"
         class="st0"
         d="m 141.4,282.3 c 0,13 -10.5,23.6 -23.6,23.6 h -771.5 c -13,0 -23.6,-10.5 -23.6,-23.6 V 94.5 c 0,-13 10.6,-23.6 23.6,-23.6 h 771.5 c 13,0 23.6,10.6 23.6,23.6 z"
         id="path3716" />
      <path
         style="fill:#a6a6a6"
         inkscape:connector-curvature="0"
         class="st1"
         d="m 117.9,311.3 h -771.5 c -16,0 -29.1,-13 -29.1,-29 V 94.5 c 0,-16 13,-29.1 29.1,-29.1 h 771.5 c 16,0 29.1,13 29.1,29.1 v 187.8 c -0.1,16 -13.1,29 -29.1,29 z"
         id="path3718" />
      <path
         inkscape:connector-curvature="0"
         d="m 141.4,282.3 c 0,13 -10.5,23.6 -23.6,23.6 h -771.5 c -13,0 -23.6,-10.5 -23.6,-23.6 V 94.5 c 0,-13 10.6,-23.6 23.6,-23.6 h 771.5 c 13,0 23.6,10.6 23.6,23.6 z"
         id="path3720" />
      <path
         style="fill:#ffffff"
         inkscape:connector-curvature="0"
         class="st0"
         d="m -497.5,187.1 c -0.2,-19.8 16.2,-29.5 17,-29.9 -9.3,-13.5 -23.7,-15.4 -28.8,-15.5 -12.1,-1.3 -23.8,7.2 -30,7.2 -6.3,0 -15.8,-7.1 -26,-6.9 -13.2,0.2 -25.5,7.8 -32.2,19.7 -13.9,24.1 -3.5,59.6 9.8,79.1 6.7,9.6 14.5,20.2 24.7,19.8 10,-0.4 13.7,-6.4 25.8,-6.4 11.9,0 15.5,6.4 25.9,6.1 10.7,-0.2 17.5,-9.6 23.9,-19.2 7.7,-10.9 10.8,-21.7 10.9,-22.3 -0.2,-0.1 -20.8,-8 -21,-31.7 z"
         id="path3722" />
      <path
         style="fill:#ffffff"
         inkscape:connector-curvature="0"
         class="st0"
         d="m -517.2,128.8 c 5.4,-6.7 9.1,-15.9 8,-25.1 -7.8,0.3 -17.5,5.4 -23.1,12 -5,5.8 -9.4,15.3 -8.2,24.2 8.8,0.6 17.7,-4.5 23.3,-11.1 z"
         id="path3724" />
      <linearGradient
         id="linearGradient4069"
         gradientUnits="userSpaceOnUse"
         x1="-74.226799"
         y1="1070.9844"
         x2="-74.226799"
         y2="849.33557"
         gradientTransform="translate(0,-759)">
        <stop
           offset="0"
           style="stop-color:#1A1A1A;stop-opacity:0.1"
           id="stop4057" />
        <stop
           offset="0.1235"
           style="stop-color:#212121;stop-opacity:0.1506"
           id="stop4059" />
        <stop
           offset="0.3085"
           style="stop-color:#353535;stop-opacity:0.2265"
           id="stop4061" />
        <stop
           offset="0.5321"
           style="stop-color:#575757;stop-opacity:0.3181"
           id="stop4063" />
        <stop
           offset="0.7834"
           style="stop-color:#858585;stop-opacity:0.4212"
           id="stop4065" />
        <stop
           offset="1"
           style="stop-color:#B3B3B3;stop-opacity:0.51"
           id="stop4067" />
      </linearGradient>
      <path
         style="fill:url(#SVGID_1_)"
         inkscape:connector-curvature="0"
         class="st2"
         d="m 117.9,65.4 h -413.2 l 161.9,245.9 H 118 c 16,0 29.1,-13 29.1,-29 V 94.5 c -0.2,-16 -13.2,-29.1 -29.2,-29.1 z"
         id="path3739" />
      <g
         id="g3757">
        <path
           style="fill:#ffffff"
           inkscape:connector-curvature="0"
           class="st0"
           d="m -352.7,259.1 h -14 l -7.6,-24 H -401 l -7.3,24 h -13.6 l 26.3,-81.8 h 16.3 z m -24,-34.1 -6.9,-21.4 c -0.7,-2.2 -2.1,-7.3 -4.1,-15.4 h -0.2 c -0.8,3.5 -2.1,8.6 -3.9,15.4 l -6.8,21.4 z"
           id="path3741" />
        <path
           style="fill:#ffffff"
           inkscape:connector-curvature="0"
           class="st0"
           d="m -285.1,228.9 c 0,10 -2.7,18 -8.2,23.8 -4.9,5.2 -11,7.8 -18.2,7.8 -7.8,0 -13.4,-2.8 -16.8,-8.4 v 31 h -13.1 v -63.5 c 0,-6.3 -0.2,-12.8 -0.5,-19.4 h 11.5 l 0.7,9.4 h 0.2 c 4.4,-7 11,-10.6 19.9,-10.6 7,0 12.8,2.7 17.4,8.3 4.7,5.4 7.1,12.6 7.1,21.6 z m -13.4,0.5 c 0,-5.7 -1.3,-10.5 -3.9,-14.2 -2.8,-3.9 -6.6,-5.8 -11.4,-5.8 -3.2,0 -6.2,1.1 -8.8,3.2 -2.6,2.2 -4.4,5 -5.2,8.4 -0.4,1.6 -0.6,2.9 -0.6,4 v 9.8 c 0,4.3 1.3,7.9 3.9,10.9 2.6,3 6.1,4.4 10.3,4.4 4.9,0 8.8,-1.9 11.5,-5.7 2.8,-3.8 4.2,-8.8 4.2,-15 z"
           id="path3743" />
        <path
           style="fill:#ffffff"
           inkscape:connector-curvature="0"
           class="st0"
           d="m -217.3,228.9 c 0,10 -2.7,18 -8.2,23.8 -4.9,5.2 -11,7.8 -18.2,7.8 -7.8,0 -13.4,-2.8 -16.8,-8.4 v 31 h -13.1 v -63.5 c 0,-6.3 -0.2,-12.8 -0.5,-19.4 h 11.5 l 0.7,9.4 h 0.2 c 4.4,-7 11,-10.6 19.9,-10.6 7,0 12.8,2.7 17.4,8.3 4.8,5.4 7.1,12.6 7.1,21.6 z m -13.3,0.5 c 0,-5.7 -1.3,-10.5 -3.9,-14.2 -2.8,-3.9 -6.6,-5.8 -11.4,-5.8 -3.2,0 -6.2,1.1 -8.8,3.2 -2.6,2.2 -4.3,5 -5.2,8.4 -0.4,1.6 -0.6,2.9 -0.6,4 v 9.8 c 0,4.3 1.3,7.9 3.9,10.9 2.6,2.9 6.1,4.4 10.3,4.4 4.9,0 8.8,-1.9 11.5,-5.7 2.8,-3.8 4.2,-8.8 4.2,-15 z"
           id="path3745" />
        <path
           style="fill:#ffffff"
           inkscape:connector-curvature="0"
           class="st0"
           d="m -141.4,236.2 c 0,7 -2.4,12.6 -7.3,17 -5.3,4.8 -12.8,7.2 -22.3,7.2 -8.8,0 -15.9,-1.7 -21.2,-5.1 l 3,-10.9 c 5.7,3.4 12.1,5.1 18.9,5.1 4.9,0 8.8,-1.1 11.5,-3.3 2.7,-2.2 4.1,-5.2 4.1,-8.9 0,-3.3 -1.1,-6.1 -3.4,-8.4 -2.3,-2.3 -6,-4.4 -11.3,-6.3 -14.3,-5.3 -21.5,-13.2 -21.5,-23.4 0,-6.7 2.5,-12.2 7.6,-16.5 5.1,-4.3 11.8,-6.4 20.1,-6.4 7.4,0 13.7,1.3 18.6,3.9 l -3.3,10.7 c -4.6,-2.5 -9.9,-3.8 -15.7,-3.8 -4.6,0 -8.3,1.1 -10.8,3.4 -2.2,2 -3.3,4.5 -3.3,7.4 0,3.2 1.3,5.9 3.8,8 2.2,1.9 6.1,4 11.9,6.3 7,2.8 12.2,6.1 15.5,9.9 3.5,3.7 5.1,8.4 5.1,14.1 z"
           id="path3747" />
        <path
           style="fill:#ffffff"
           inkscape:connector-curvature="0"
           class="st0"
           d="m -97.9,210 h -14.5 v 28.6 c 0,7.3 2.5,10.9 7.6,10.9 2.3,0 4.3,-0.2 5.8,-0.6 l 0.4,10 c -2.6,1 -6,1.5 -10.2,1.5 -5.2,0 -9.2,-1.6 -12.1,-4.7 -2.9,-3.2 -4.4,-8.5 -4.4,-15.9 V 210 h -8.6 v -9.8 h 8.6 v -10.8 l 12.9,-3.9 v 14.7 h 14.5 c 0,-0.1 0,9.8 0,9.8 z"
           id="path3749" />
        <path
           style="fill:#ffffff"
           inkscape:connector-curvature="0"
           class="st0"
           d="m -32.8,229.2 c 0,9.1 -2.6,16.5 -7.8,22.3 -5.4,6 -12.6,9 -21.6,9 -8.7,0 -15.6,-2.9 -20.7,-8.6 -5.1,-5.7 -7.7,-13 -7.7,-21.7 0,-9.1 2.7,-16.6 8,-22.5 5.3,-5.8 12.5,-8.7 21.4,-8.7 8.7,0 15.6,2.9 20.9,8.6 4.9,5.5 7.5,12.7 7.5,21.6 z m -13.6,0.3 c 0,-5.4 -1.2,-10 -3.5,-13.9 -2.7,-4.7 -6.7,-7 -11.8,-7 -5.3,0 -9.3,2.3 -12,7 -2.3,3.9 -3.5,8.6 -3.5,14.2 0,5.4 1.2,10.1 3.5,13.9 2.8,4.7 6.8,7 11.9,7 5,0 8.9,-2.4 11.8,-7.1 2.3,-4.1 3.6,-8.7 3.6,-14.1 z"
           id="path3751" />
        <path
           style="fill:#ffffff"
           inkscape:connector-curvature="0"
           class="st0"
           d="m 9.8,211.7 c -1.3,-0.2 -2.7,-0.4 -4.1,-0.4 -4.6,0 -8.2,1.7 -10.7,5.2 -2.2,3.1 -3.3,7 -3.3,11.7 v 31 h -13.1 v -40.4 c 0,-6.8 -0.1,-13 -0.4,-18.6 h 11.4 l 0.5,11.3 h 0.4 c 1.4,-3.9 3.6,-7 6.6,-9.4 2.9,-2.1 6.1,-3.2 9.5,-3.2 1.2,0 2.3,0.1 3.3,0.2 z"
           id="path3753" />
        <path
           style="fill:#ffffff"
           inkscape:connector-curvature="0"
           class="st0"
           d="m 68.4,226.8 c 0,2.3 -0.2,4.3 -0.5,5.9 H 28.6 c 0.1,5.8 2.1,10.3 5.7,13.4 3.3,2.7 7.6,4.1 12.9,4.1 5.8,0 11.1,-0.9 15.9,-2.8 l 2.1,9.1 c -5.6,2.4 -12.2,3.6 -19.8,3.6 -9.1,0 -16.3,-2.7 -21.6,-8.1 -5.2,-5.4 -7.8,-12.6 -7.8,-21.7 0,-8.9 2.4,-16.3 7.3,-22.2 5.1,-6.3 12,-9.5 20.6,-9.5 8.5,0 14.9,3.2 19.3,9.5 3.5,5.2 5.2,11.4 5.2,18.7 z m -12.5,-3.4 c 0.1,-3.9 -0.8,-7.2 -2.5,-10.1 -2.3,-3.7 -5.8,-5.5 -10.4,-5.5 -4.3,0 -7.8,1.8 -10.4,5.3 -2.2,2.8 -3.5,6.2 -3.9,10.2 z"
           id="path3755" />
      </g>
      <g
         id="g3787">
        <path
           style="fill:#ffffff"
           inkscape:connector-curvature="0"
           class="st0"
           d="m -383,148 h -6.9 l -3.8,-11.8 h -13.1 l -3.6,11.8 h -6.7 l 12.9,-40.2 h 8 z m -11.7,-16.7 -3.4,-10.5 c -0.4,-1.1 -1,-3.6 -2,-7.6 h -0.1 c -0.4,1.7 -1,4.2 -1.9,7.6 l -3.3,10.5 z"
           id="path3759" />
        <path
           style="fill:#ffffff"
           inkscape:connector-curvature="0"
           class="st0"
           d="m -350.6,119 -11,29 h -6.3 l -10.6,-29 h 6.9 l 5,15.3 c 0.8,2.6 1.5,5 2.1,7.3 h 0.2 c 0.5,-2.1 1.2,-4.5 2.1,-7.3 l 4.9,-15.3 c -0.1,0 6.7,0 6.7,0 z"
           id="path3761" />
        <path
           style="fill:#ffffff"
           inkscape:connector-curvature="0"
           class="st0"
           d="m -327.2,148 -0.5,-3.3 h -0.2 c -2,2.7 -4.8,4 -8.5,4 -5.2,0 -8.9,-3.6 -8.9,-8.5 0,-7.2 6.2,-10.9 16.9,-10.9 v -0.5 c 0,-3.8 -2,-5.7 -6,-5.7 -2.9,0 -5.4,0.7 -7.6,2.2 l -1.3,-4.2 c 2.7,-1.7 6,-2.5 10,-2.5 7.6,0 11.4,4 11.4,12 v 10.7 c 0,2.9 0.1,5.2 0.4,6.9 z m -0.9,-14.4 c -7.2,0 -10.7,1.7 -10.7,5.8 0,3 1.9,4.5 4.4,4.5 3.3,0 6.3,-2.5 6.3,-5.9 0,0.1 0,-4.4 0,-4.4 z"
           id="path3763" />
        <path
           style="fill:#ffffff"
           inkscape:connector-curvature="0"
           class="st0"
           d="m -307.5,114.2 c -2.1,0 -3.8,-1.7 -3.8,-3.9 0,-2.2 1.7,-3.8 3.9,-3.8 2.2,0 4,1.6 3.9,3.8 0.1,2.4 -1.6,3.9 -4,3.9 z m 3.3,33.8 h -6.4 v -29 h 6.4 z"
           id="path3765" />
        <path
           style="fill:#ffffff"
           inkscape:connector-curvature="0"
           class="st0"
           d="m -286.3,148 h -6.4 v -42.3 h 6.4 z"
           id="path3767" />
        <path
           style="fill:#ffffff"
           inkscape:connector-curvature="0"
           class="st0"
           d="m -258.9,148 -0.5,-3.3 h -0.2 c -2,2.7 -4.8,4 -8.5,4 -5.2,0 -8.9,-3.6 -8.9,-8.5 0,-7.2 6.2,-10.9 16.9,-10.9 v -0.5 c 0,-3.8 -2,-5.7 -6,-5.7 -2.9,0 -5.4,0.7 -7.6,2.2 l -1.3,-4.2 c 2.7,-1.7 6,-2.5 10,-2.5 7.6,0 11.4,4 11.4,12 v 10.7 c 0,2.9 0.1,5.2 0.4,6.9 h -5.7 z m -0.9,-14.4 c -7.2,0 -10.7,1.7 -10.7,5.8 0,3 1.9,4.5 4.4,4.5 3.3,0 6.3,-2.5 6.3,-5.9 z"
           id="path3769" />
        <path
           style="fill:#ffffff"
           inkscape:connector-curvature="0"
           class="st0"
           d="m -227.4,148.7 c -4.1,0 -7.2,-1.7 -9.1,-5.1 h -0.1 l -0.4,4.5 h -5.5 c 0.2,-2.3 0.2,-5 0.2,-7.8 v -34.5 h 6.5 v 17.5 h 0.1 c 1.9,-3.2 5,-4.8 9.2,-4.8 7,0 11.9,6 11.9,14.7 0,8.9 -5.4,15.5 -12.8,15.5 z m -1.3,-25.2 c -3.7,0 -7.1,3.2 -7.1,7.7 v 5.1 c 0,4 3,7.3 7,7.3 4.8,0 7.7,-3.9 7.7,-10.2 0,-5.9 -3,-9.9 -7.6,-9.9 z"
           id="path3771" />
        <path
           style="fill:#ffffff"
           inkscape:connector-curvature="0"
           class="st0"
           d="m -198.6,148 h -6.4 v -42.3 h 6.4 z"
           id="path3773" />
        <path
           style="fill:#ffffff"
           inkscape:connector-curvature="0"
           class="st0"
           d="m -163.5,135.1 h -19.3 c 0.1,5.5 3.8,8.6 9.1,8.6 2.9,0 5.5,-0.5 7.8,-1.4 l 1,4.5 c -2.7,1.2 -6,1.8 -9.7,1.8 -9.1,0 -14.4,-5.7 -14.4,-14.6 0,-8.9 5.5,-15.6 13.7,-15.6 7.4,0 12.1,5.5 12.1,13.8 -0.1,1.1 -0.1,2.1 -0.3,2.9 z m -5.9,-4.6 c 0,-4.5 -2.3,-7.6 -6.4,-7.6 -3.7,0 -6.6,3.2 -7,7.6 z"
           id="path3775" />
        <path
           style="fill:#ffffff"
           inkscape:connector-curvature="0"
           class="st0"
           d="m -124.4,148.7 c -8.5,0 -14,-6.3 -14,-14.9 0,-9 5.6,-15.3 14.5,-15.3 8.3,0 14,6 14,14.9 -0.1,9 -5.9,15.3 -14.5,15.3 z m 0.2,-25.6 c -4.7,0 -7.6,4.4 -7.6,10.4 0,6 3,10.3 7.6,10.3 4.6,0 7.6,-4.7 7.6,-10.4 -0.1,-5.8 -3.1,-10.3 -7.6,-10.3 z"
           id="path3777" />
        <path
           style="fill:#ffffff"
           inkscape:connector-curvature="0"
           class="st0"
           d="m -75.4,148 h -6.4 v -16.7 c 0,-5.1 -2,-7.7 -5.8,-7.7 -3.8,0 -6.5,3.3 -6.5,7.1 V 148 h -6.4 v -20.7 c 0,-2.6 -0.1,-5.3 -0.2,-8.3 h 5.7 l 0.3,4.5 h 0.2 c 1.7,-3.1 5.3,-5.1 9.2,-5.1 6.1,0 10.1,4.7 10.1,12.2 z"
           id="path3779" />
        <path
           style="fill:#ffffff"
           inkscape:connector-curvature="0"
           class="st0"
           d="m -33.2,123.9 h -7.1 V 138 c 0,3.6 1.2,5.4 3.8,5.4 1.1,0 2.1,-0.1 2.9,-0.3 l 0.2,4.9 c -1.3,0.5 -2.9,0.7 -5,0.7 -5.1,0 -8.1,-2.8 -8.1,-10.1 V 124 h -4.2 v -5 h 4.2 v -5.3 l 6.3,-1.9 v 7.2 h 7.1 v 4.9 z"
           id="path3781" />
        <path
           style="fill:#ffffff"
           inkscape:connector-curvature="0"
           class="st0"
           d="m 0.9,148 h -6.5 v -16.5 c 0,-5.2 -2,-7.8 -5.8,-7.8 -3.3,0 -6.4,2.3 -6.4,6.9 V 148 h -6.5 v -42.3 h 6.5 v 17.4 h 0.1 c 2,-3.2 5,-4.7 8.7,-4.7 6.1,0 9.9,4.8 9.9,12.4 z"
           id="path3783" />
        <path
           style="fill:#ffffff"
           inkscape:connector-curvature="0"
           class="st0"
           d="M 33.9,135.1 H 14.5 c 0.1,5.5 3.8,8.6 9.1,8.6 2.9,0 5.5,-0.5 7.8,-1.4 l 1,4.5 c -2.7,1.2 -6,1.8 -9.7,1.8 -9.1,0 -14.4,-5.7 -14.4,-14.6 0,-8.9 5.5,-15.6 13.7,-15.6 7.4,0 12.1,5.5 12.1,13.8 0,1.1 -0.1,2.1 -0.2,2.9 z M 28,130.5 c 0,-4.5 -2.3,-7.6 -6.4,-7.6 -3.7,0 -6.6,3.2 -7,7.6 z"
           id="path3785" />
      </g>
    </g>
  </g>
</svg>
