<?xml version="1.0" encoding="UTF-8" standalone="no"?>
<!-- Created with Inkscape (http://www.inkscape.org/) -->

<svg
   xmlns:dc="http://purl.org/dc/elements/1.1/"
   xmlns:cc="http://creativecommons.org/ns#"
   xmlns:rdf="http://www.w3.org/1999/02/22-rdf-syntax-ns#"
   xmlns:svg="http://www.w3.org/2000/svg"
   xmlns="http://www.w3.org/2000/svg"
   xmlns:sodipodi="http://sodipodi.sourceforge.net/DTD/sodipodi-0.dtd"
   xmlns:inkscape="http://www.inkscape.org/namespaces/inkscape"
   width="66.130287mm"
   height="19.36838mm"
   viewBox="0 0 66.130287 19.36838"
   version="1.1"
   id="svg8"
   inkscape:version="0.92.4 (f8dce91, 2019-08-02)"
   sodipodi:docname="google-play.svg">
  <defs
     id="defs2">
	
	
		
</defs>
  <sodipodi:namedview
     id="base"
     pagecolor="#ffffff"
     bordercolor="#666666"
     borderopacity="1.0"
     inkscape:pageopacity="0.0"
     inkscape:pageshadow="2"
     inkscape:zoom="0.35"
     inkscape:cx="-350.82892"
     inkscape:cy="102.09275"
     inkscape:document-units="mm"
     inkscape:current-layer="g10"
     showgrid="false"
     fit-margin-top="0"
     fit-margin-left="0"
     fit-margin-right="0"
     fit-margin-bottom="0"
     inkscape:window-width="1920"
     inkscape:window-height="1025"
     inkscape:window-x="0"
     inkscape:window-y="27"
     inkscape:window-maximized="1" />
  <metadata
     id="metadata5">
    <rdf:RDF>
      <cc:Work
         rdf:about="">
        <dc:format>image/svg+xml</dc:format>
        <dc:type
           rdf:resource="http://purl.org/dc/dcmitype/StillImage" />
        <dc:title></dc:title>
      </cc:Work>
    </rdf:RDF>
  </metadata>
  <g
     inkscape:label="Layer 1"
     inkscape:groupmode="layer"
     id="layer1"
     transform="translate(-65.609198,-156.47699)">
    <g
       id="g10"
       transform="matrix(0.09964123,0,0,-0.09964123,121.54196,55.113427)"
       inkscape:groupmode="layer"
       inkscape:label="google-play-badge">
		<g
   id="g12"
   transform="matrix(1.0023923,0,0,0.99072975,-23.056876,-789.02125)"
   inkscape:export-xdpi="96"
   inkscape:export-ydpi="96">
			<path
   id="path14"
   inkscape:connector-curvature="0"
   d="m 100.6,-426.6 h -613.1 c -13.5,0 -24.5,11 -24.5,24.5 V -255 c 0,13.5 11,24.5 24.5,24.5 h 613.1 c 13.5,0 24.5,-11 24.5,-24.5 v -147.1 c 0,-13.5 -11.1,-24.5 -24.5,-24.5 z" />

			<path
   style="fill:#a6a6a6"
   id="path16"
   inkscape:connector-curvature="0"
   class="st1"
   d="m 100.6,-234.3 c 11.4,0 20.6,-9.2 20.6,-20.6 V -402 c 0,-11.4 -9.2,-20.6 -20.6,-20.6 h -613.1 c -11.4,0 -20.6,9.2 -20.6,20.6 v 147.1 c 0,11.4 9.2,20.6 20.6,20.6 h 613.1 m 0,3.9 h -613.1 c -13.5,0 -24.5,-11 -24.5,-24.5 V -402 c 0,-13.5 11,-24.5 24.5,-24.5 h 613.1 c 13.5,0 24.5,11 24.5,24.5 v 147.1 c 0,13.5 -11.1,24.5 -24.5,24.5 z" />

			<g
   id="g18"
   transform="matrix(1,0,0,-1,0,48)">
				<path
   style="fill:#ffffff;stroke:#ffffff;stroke-width:0.16;stroke-miterlimit:10"
   id="path20"
   inkscape:connector-curvature="0"
   class="st3"
   d="m -304.5,328.7 c 0,4.1 -1.2,7.4 -3.6,9.8 -2.8,2.9 -6.4,4.4 -10.8,4.4 -4.2,0 -7.9,-1.5 -10.8,-4.4 -3,-3 -4.5,-6.6 -4.5,-11 0,-4.4 1.5,-8 4.5,-10.9 3,-2.9 6.6,-4.4 10.8,-4.4 2.1,0 4.1,0.4 6,1.2 1.9,0.8 3.5,1.9 4.6,3.3 l -2.6,2.6 c -2,-2.3 -4.6,-3.5 -8.1,-3.5 -3.1,0 -5.8,1.1 -8,3.3 -2.3,2.2 -3.4,5 -3.4,8.5 0,3.5 1.1,6.3 3.4,8.5 2.3,2.2 5,3.3 8,3.3 3.3,0 6,-1.1 8.2,-3.3 1.4,-1.4 2.3,-3.4 2.5,-6 H -319 v -3.5 h 14.2 c 0.3,0.6 0.3,1.3 0.3,2.1 z" />

			</g>

			<g
   id="g22"
   transform="matrix(1,0,0,-1,0,48)">
				<path
   style="fill:#ffffff;stroke:#ffffff;stroke-width:0.16;stroke-miterlimit:10"
   id="path24"
   inkscape:connector-curvature="0"
   class="st3"
   d="m -281.9,316.4 h -13.4 v 9.3 h 12.1 v 3.5 h -12.1 v 9.3 h 13.4 v 3.6 h -17.2 v -29.4 h 17.2 c 0,0.1 0,3.7 0,3.7 z" />

			</g>

			<g
   id="g26"
   transform="matrix(1,0,0,-1,0,48)">
				<path
   style="fill:#ffffff;stroke:#ffffff;stroke-width:0.16;stroke-miterlimit:10"
   id="path28"
   inkscape:connector-curvature="0"
   class="st3"
   d="m -265.9,342.2 h -3.8 v -25.8 h -8.2 v -3.6 h 20.2 v 3.6 h -8.2 z" />

			</g>

			<g
   id="g30"
   transform="matrix(1,0,0,-1,0,48)">
				<path
   style="fill:#ffffff;stroke:#ffffff;stroke-width:0.16;stroke-miterlimit:10"
   id="path32"
   inkscape:connector-curvature="0"
   class="st3"
   d="m -243.1,342.2 v -29.4 h 3.8 v 29.4 z" />

			</g>

			<g
   id="g34"
   transform="matrix(1,0,0,-1,0,48)">
				<path
   style="fill:#ffffff;stroke:#ffffff;stroke-width:0.16;stroke-miterlimit:10"
   id="path36"
   inkscape:connector-curvature="0"
   class="st3"
   d="m -222.5,342.2 h -3.8 v -25.8 h -8.2 v -3.6 h 20.2 v 3.6 h -8.2 c 0,0 0,25.8 0,25.8 z" />

			</g>

			<g
   id="g38"
   transform="matrix(1,0,0,-1,0,48)">
				<path
   style="fill:#ffffff;stroke:#ffffff;stroke-width:0.16;stroke-miterlimit:10"
   id="path40"
   inkscape:connector-curvature="0"
   class="st3"
   d="m -176,338.4 c -2.9,3 -6.5,4.5 -10.8,4.5 -4.3,0 -7.9,-1.5 -10.8,-4.5 -2.9,-3 -4.3,-6.6 -4.3,-10.9 0,-4.3 1.4,-8 4.3,-10.9 2.9,-3 6.5,-4.5 10.8,-4.5 4.3,0 7.9,1.5 10.8,4.5 2.9,3 4.4,6.6 4.4,10.9 -0.1,4.3 -1.5,7.9 -4.4,10.9 z m -18.8,-2.5 c 2.2,2.2 4.8,3.3 8,3.3 3.1,0 5.8,-1.1 8,-3.3 2.2,-2.2 3.3,-5 3.3,-8.5 0,-3.5 -1.1,-6.3 -3.3,-8.5 -2.2,-2.2 -4.8,-3.3 -8,-3.3 -3.2,0 -5.8,1.1 -8,3.3 -2.2,2.2 -3.3,5 -3.3,8.5 0,3.5 1.1,6.3 3.3,8.5 z" />

			</g>

			<g
   id="g42"
   transform="matrix(1,0,0,-1,0,48)">
				<path
   style="fill:#ffffff;stroke:#ffffff;stroke-width:0.16;stroke-miterlimit:10"
   id="path44"
   inkscape:connector-curvature="0"
   class="st3"
   d="m -166.4,342.2 v -29.4 h 4.6 l 14.3,22.9 h 0.2 l -0.2,-5.7 v -17.2 h 3.8 v 29.4 h -3.9 l -15,-24 h -0.2 l 0.2,5.7 v 18.3 c 0,0 -3.8,0 -3.8,0 z" />

			</g>

			<path
   style="fill:#ffffff"
   id="path46"
   inkscape:connector-curvature="0"
   class="st0"
   d="m -202.9,-337.1 c -11.5,0 -20.9,-8.8 -20.9,-20.9 0,-12 9.4,-20.9 20.9,-20.9 11.5,0 21,8.9 21,20.9 0,12.1 -9.4,20.9 -21,20.9 z m 0,-33.5 c -6.3,0 -11.8,5.2 -11.8,12.6 0,7.5 5.4,12.6 11.8,12.6 6.4,0 11.8,-5.1 11.8,-12.6 0,-7.4 -5.5,-12.6 -11.8,-12.6 z m -45.6,33.5 c -11.5,0 -20.9,-8.8 -20.9,-20.9 0,-12 9.4,-20.9 20.9,-20.9 11.5,0 20.9,8.9 20.9,20.9 0,12.1 -9.4,20.9 -20.9,20.9 z m 0,-33.5 c -6.3,0 -11.8,5.2 -11.8,12.6 0,7.5 5.5,12.6 11.8,12.6 6.3,0 11.8,-5.1 11.8,-12.6 -0.1,-7.4 -5.5,-12.6 -11.8,-12.6 z m -54.4,27.1 v -8.9 h 21.2 c -0.6,-5 -2.3,-8.6 -4.8,-11.1 -3.1,-3.1 -7.9,-6.5 -16.4,-6.5 -13,0 -23.2,10.5 -23.2,23.5 0,13 10.2,23.5 23.2,23.5 7,0 12.2,-2.8 16,-6.3 l 6.2,6.2 c -5.3,5.1 -12.3,8.9 -22.2,8.9 -17.9,0 -32.9,-14.5 -32.9,-32.4 0,-17.9 15,-32.4 32.9,-32.4 9.7,0 16.9,3.2 22.6,9.1 5.8,5.8 7.7,14.1 7.7,20.7 0,2.1 -0.2,4 -0.5,5.5 0,0.2 -29.8,0.2 -29.8,0.2 z m 222.2,-6.9 c -1.7,4.7 -7,13.3 -17.9,13.3 -10.7,0 -19.7,-8.5 -19.7,-20.9 0,-11.7 8.8,-20.9 20.7,-20.9 9.6,0 15.1,5.8 17.4,9.2 l -7.1,4.7 c -2.4,-3.5 -5.6,-5.8 -10.3,-5.8 -4.6,0 -8,2.1 -10.1,6.3 l 27.9,11.5 c 0.1,0.3 -0.9,2.6 -0.9,2.6 z m -28.4,-6.9 c -0.2,8 6.2,12.2 10.9,12.2 3.6,0 6.7,-1.8 7.8,-4.4 -0.1,-0.1 -18.7,-7.8 -18.7,-7.8 z m -22.7,-20.3 h 9.2 v 61.3 h -9.2 z m -15,35.9 h -0.3 c -2.1,2.4 -6,4.6 -11,4.6 -10.4,0 -20,-9.2 -20,-20.9 0,-11.7 9.6,-20.8 20,-20.8 5,0 8.9,2.2 11,4.7 h 0.3 v -3 c 0,-8 -4.3,-12.3 -11.1,-12.3 -5.6,0 -9.1,4 -10.5,7.4 l -8,-3.3 c 2.3,-5.5 8.4,-12.3 18.5,-12.3 10.8,0 19.8,6.3 19.8,21.7 v 37.5 h -8.7 z m -10.5,-28.9 c -6.3,0 -11.6,5.3 -11.6,12.6 0,7.4 5.3,12.7 11.6,12.7 6.2,0 11.1,-5.4 11.1,-12.7 0,-7.3 -4.9,-12.6 -11.1,-12.6 z m 119.6,54.4 h -21.9 v -61.3 h 9.1 v 23.2 h 12.8 c 10.2,0 20.1,7.4 20.1,19 0,11.7 -10,19.1 -20.1,19.1 z m 0.2,-29.6 h -13 v 21 h 13 c 6.8,0 10.7,-5.7 10.7,-10.5 0,-4.7 -3.9,-10.5 -10.7,-10.5 z m 56.6,8.8 c -6.6,0 -13.5,-2.9 -16.3,-9.4 l 8.1,-3.4 c 1.7,3.4 5,4.5 8.4,4.5 4.7,0 9.6,-2.9 9.6,-7.9 v -0.6 c -1.7,1 -5.2,2.4 -9.6,2.4 -8.7,0 -17.7,-4.8 -17.7,-13.8 0,-8.2 7.2,-13.5 15.2,-13.5 6.2,0 9.6,2.8 11.7,6 h 0.3 v -4.7 h 8.8 v 23.5 c 0.1,10.8 -8,16.9 -18.5,16.9 z M 18,-370.6 c -3,0 -7.2,1.5 -7.2,5.2 0,4.7 5.2,6.6 9.7,6.6 4,0 5.9,-0.9 8.4,-2.1 -0.8,-5.7 -5.6,-9.7 -10.9,-9.7 z m 51.9,32.3 -10.5,-26.6 h -0.3 l -10.9,26.6 h -9.9 l 16.3,-37.1 -9.3,-20.7 h 9.6 l 25.2,57.8 c 0,0 -10.2,0 -10.2,0 z m -82.5,-39.3 h 9.2 v 61.3 h -9.2 z" />

			<g
   id="g48">
				
					<linearGradient
   id="path64_1_"
   gradientUnits="userSpaceOnUse"
   x1="-422.56891"
   y1="-58.390999"
   x2="-525.4624"
   y2="-161.28439"
   gradientTransform="matrix(1.0024,0,0,-0.9907,-6.5687,-441.7346)">
					<stop
   offset="0"
   style="stop-color:#00A0FF"
   id="stop3808" />

					<stop
   offset="6.599999e-003"
   style="stop-color:#00A1FF"
   id="stop3810" />

					<stop
   offset="0.2601"
   style="stop-color:#00BEFF"
   id="stop3812" />

					<stop
   offset="0.5122"
   style="stop-color:#00D2FF"
   id="stop3814" />

					<stop
   offset="0.7604"
   style="stop-color:#00DFFF"
   id="stop3816" />

					<stop
   offset="1"
   style="stop-color:#00E3FF"
   id="stop3818" />

				</linearGradient>

				<path
   style="fill:url(#path64_1_)"
   id="path64"
   inkscape:connector-curvature="0"
   class="st4"
   d="m -485.9,-267.4 c -1.4,-1.5 -2.3,-3.9 -2.3,-6.9 v -108.5 c 0,-3 0.8,-5.4 2.3,-6.9 l 0.4,-0.3 60.8,60.8 v 1.4 l -60.8,60.8 z" />

			</g>

			<g
   id="g66">
				
					<linearGradient
   id="path78_1_"
   gradientUnits="userSpaceOnUse"
   x1="-363.67691"
   y1="-114.2908"
   x2="-512.02899"
   y2="-114.2908"
   gradientTransform="matrix(1.0024,0,0,-0.9907,-6.5687,-441.7346)">
					<stop
   offset="0"
   style="stop-color:#FFE000"
   id="stop3823" />

					<stop
   offset="0.4087"
   style="stop-color:#FFBD00"
   id="stop3825" />

					<stop
   offset="0.7754"
   style="stop-color:#FFA500"
   id="stop3827" />

					<stop
   offset="1"
   style="stop-color:#FF9C00"
   id="stop3829" />

				</linearGradient>

				<path
   style="fill:url(#path78_1_)"
   id="path78"
   inkscape:connector-curvature="0"
   class="st5"
   d="m -404.5,-349.5 -20.2,20.3 v 1.4 l 20.3,20.3 0.5,-0.3 24,-13.7 c 6.8,-3.9 6.8,-10.3 0,-14.2 l -24,-13.6 c -0.1,0.1 -0.6,-0.2 -0.6,-0.2 z" />

			</g>

			<g
   id="g80">
				
					<linearGradient
   id="path88_1_"
   gradientUnits="userSpaceOnUse"
   x1="-448.582"
   y1="-84.346802"
   x2="-588.11401"
   y2="-223.8788"
   gradientTransform="matrix(1.0024,0,0,-0.9907,-6.5687,-441.7346)">
					<stop
   offset="0"
   style="stop-color:#FF3A44"
   id="stop3834" />

					<stop
   offset="1"
   style="stop-color:#C31162"
   id="stop3836" />

				</linearGradient>

				<path
   style="fill:url(#path88_1_)"
   id="path88"
   inkscape:connector-curvature="0"
   class="st6"
   d="m -404,-349.2 -20.7,20.7 -61.1,-61.1 c 2.3,-2.4 6,-2.7 10.2,-0.3 l 71.6,40.7" />

			</g>

			<g
   id="g90">
				
					<linearGradient
   id="path104_1_"
   gradientUnits="userSpaceOnUse"
   x1="-534.34619"
   y1="-57.449501"
   x2="-472.03891"
   y2="-119.7562"
   gradientTransform="matrix(1.0024,0,0,-0.9907,-6.5687,-441.7346)">
					<stop
   offset="0"
   style="stop-color:#32A071"
   id="stop3841" />

					<stop
   offset="6.850000e-002"
   style="stop-color:#2DA771"
   id="stop3843" />

					<stop
   offset="0.4762"
   style="stop-color:#15CF74"
   id="stop3845" />

					<stop
   offset="0.8009"
   style="stop-color:#06E775"
   id="stop3847" />

					<stop
   offset="1"
   style="stop-color:#00F076"
   id="stop3849" />

				</linearGradient>

				<path
   style="fill:url(#path104_1_)"
   id="path104"
   inkscape:connector-curvature="0"
   class="st7"
   d="m -404,-307.8 -71.7,40.7 c -4.2,2.4 -7.9,2.1 -10.2,-0.3 l 61.1,-61.1 z" />

			</g>

		</g>

	</g>
  </g>
  <style
     id="style3713"
     type="text/css">
	.st0{fill:#FFFFFF;}
	.st1{fill:#A6A6A6;}
	.st2{fill:url(#SVGID_1_);}
	.st3{fill:#FFFFFF;stroke:#FFFFFF;stroke-width:0.16;stroke-miterlimit:10;}
	.st4{fill:url(#path64_1_);}
	.st5{fill:url(#path78_1_);}
	.st6{fill:url(#path88_1_);}
	.st7{fill:url(#path104_1_);}
</style>
</svg>
