<?xml version="1.0" encoding="utf-8"?>
<!-- Generator: Adobe Illustrator 16.0.0, SVG Export Plug-In . SVG Version: 6.00 Build 0)  -->
<!DOCTYPE svg PUBLIC "-//W3C//DTD SVG 1.1//EN" "http://www.w3.org/Graphics/SVG/1.1/DTD/svg11.dtd">
<svg version="1.1" id="Layer_1" xmlns="http://www.w3.org/2000/svg" xmlns:xlink="http://www.w3.org/1999/xlink" x="0px" y="0px"
	 width="37.1172px" height="37.416px" viewBox="0 0 37.1172 37.416" enable-background="new 0 0 37.1172 37.416"
	 xml:space="preserve">
<g>
	<g>
		<path fill="#FFFFFF" d="M18.5566,37.416c-4.7837,0-9.6816-1.1846-14.5581-3.521L3.873,33.8335
			c-0.2031-0.1001-0.3662-0.2656-0.4629-0.4707l-0.0576-0.1221C1.1592,28.5728,0,23.4639,0,18.4648
			c0-4.9873,1.1118-9.8823,3.3047-14.5483L3.376,3.7734c0.1011-0.2017,0.2666-0.3633,0.4712-0.4585l0.1201-0.0562
			C8.4751,1.0977,13.3467,0,18.4375,0c4.7417,0,9.7964,1.2188,14.6172,3.5244l0.0884,0.0376
			c0.2314,0.1001,0.4165,0.2837,0.5181,0.5146l0.0547,0.124c2.2217,4.7275,3.4014,9.8374,3.4014,14.7549
			c0,4.9102-1.1343,9.8062-3.3706,14.5532l-0.0522,0.1113c-0.0977,0.2095-0.2651,0.3789-0.4736,0.479l-0.123,0.0591
			C28.6362,36.29,23.6089,37.416,18.5566,37.416z M5.0693,32.1895c4.5298,2.1401,9.0693,3.2266,13.4873,3.2266
			c4.6802,0,9.335-1.0254,13.4775-2.9668c2.0464-4.4155,3.083-8.9531,3.083-13.4937c0-4.5552-1.0806-9.2954-3.1265-13.7227
			C27.4761,3.1123,22.8066,2,18.4375,2c-4.7158,0-9.229,1-13.4189,2.9736C3.019,9.2944,2,13.8398,2,18.4648
			C2,23.1011,3.0605,27.8418,5.0693,32.1895z"/>
	</g>
	<g>
		<circle fill="#FFFFFF" cx="18.5581" cy="14.2441" r="6.3647"/>
	</g>
	<g>
		<path fill="#FFFFFF" d="M29.6143,33.9805c-1.5586-5.8555-5.915-10.0757-11.0557-10.0757c-5.1416,0-9.498,4.2202-11.0566,10.0757
			c0.1885,0.1899,0.3916,0.3604,0.5879,0.5396c3.5234,1.2588,7.0322,1.896,10.4668,1.896c3.46,0,6.8994-0.5547,10.1465-1.5991
			C29.0137,34.5469,29.3223,34.2744,29.6143,33.9805z"/>
		<path fill="#FFFFFF" d="M18.5566,37.416c-3.5386,0-7.1733-0.6577-10.8032-1.9541c-0.125-0.0449-0.2397-0.1138-0.3379-0.2031
			l-0.1763-0.1582c-0.1519-0.1353-0.3032-0.2705-0.4473-0.416c-0.25-0.252-0.3477-0.6182-0.2563-0.9614
			c1.7222-6.4707,6.5542-10.8184,12.0229-10.8184c5.4683,0,10.2998,4.3477,12.022,10.8184c0.0913,0.3438-0.0063,0.71-0.2568,0.9619
			c-0.3091,0.3115-0.6357,0.6006-0.9644,0.8862c-0.1021,0.0889-0.2212,0.1563-0.3501,0.1978
			C25.6113,36.8618,22.0947,37.416,18.5566,37.416z M8.6357,33.6523c6.7075,2.3491,13.3086,2.2451,19.5664,0.2744
			c0.0957-0.0835,0.1909-0.168,0.2852-0.2534c-1.6025-5.269-5.5352-8.7686-9.9287-8.7686
			C14.1699,24.9048,10.2417,28.3945,8.6357,33.6523z"/>
	</g>
</g>
</svg>
