<?xml version="1.0" encoding="utf-8"?>
<!-- Generator: Adobe Illustrator 16.0.0, SVG Export Plug-In . SVG Version: 6.00 Build 0)  -->
<!DOCTYPE svg PUBLIC "-//W3C//DTD SVG 1.1//EN" "http://www.w3.org/Graphics/SVG/1.1/DTD/svg11.dtd">
<svg version="1.1" id="Layer_1" xmlns="http://www.w3.org/2000/svg" xmlns:xlink="http://www.w3.org/1999/xlink" x="0px" y="0px"
	 width="35.5645px" height="48.9917px" viewBox="0 0 35.5645 48.9917" enable-background="new 0 0 35.5645 48.9917"
	 xml:space="preserve">
<g>
	<g>
		<path fill="#03AEBB" d="M12.6992,48.8369c0.6631,0.3291,1.5103,0.1162,1.9385-0.4727l20.6265-28.2158
			c0.3467-0.4736,0.397-1.0928,0.1309-1.6162s-0.7954-0.8486-1.3823-0.8486H19.6514l6.9854-15.4961
			c0.2178-0.4824,0.1763-1.0352-0.1104-1.4785C26.2393,0.2646,25.7529,0,25.2246,0H12.502c-0.6338,0-1.1973,0.3789-1.4355,0.9658
			L0.1143,27.8604c-0.1943,0.4795-0.1387,1.0215,0.1494,1.4502c0.2891,0.4297,0.7695,0.6855,1.2861,0.6855h15.417l-5.0649,17.0107
			C11.6865,47.7314,12.0215,48.501,12.6992,48.8369z M3.8545,26.8965l9.6895-23.7969h9.2822l-6.9863,15.4971
			c-0.2173,0.4814-0.1753,1.0342,0.1113,1.4785c0.2871,0.4443,0.7734,0.709,1.3018,0.709H30.96L17.4336,39.2881l3.0967-10.4004
			c0.1387-0.4668,0.0479-0.9775-0.2432-1.3682s-0.7559-0.623-1.2427-0.623H3.8545z"/>
	</g>
</g>
</svg>
