<?xml version="1.0" encoding="utf-8"?>
<!-- Generator: Adobe Illustrator 16.0.0, SVG Export Plug-In . SVG Version: 6.00 Build 0)  -->
<!DOCTYPE svg PUBLIC "-//W3C//DTD SVG 1.1//EN" "http://www.w3.org/Graphics/SVG/1.1/DTD/svg11.dtd">
<svg version="1.1" id="Layer_1" xmlns="http://www.w3.org/2000/svg" xmlns:xlink="http://www.w3.org/1999/xlink" x="0px" y="0px"
	 width="50px" height="49.9941px" viewBox="0 0 50 49.9941" enable-background="new 0 0 50 49.9941" xml:space="preserve">
<g>
	<g>
		<g>
			<path fill="#03AEBB" d="M45.7441,22.9961l-0.7891-0.1973L44.6245,22l0.4248-0.707c0.2305-0.3838,0.1709-0.875-0.1445-1.1914
				l-1.5054-1.5137c-0.3169-0.3203-0.8105-0.3809-1.1953-0.1484l-0.7124,0.4268l-0.7998-0.3311l-0.2017-0.8115
				c-0.1094-0.4355-0.4995-0.7412-0.9478-0.7412h-2.1309c-0.4482,0-0.8389,0.3057-0.9478,0.7412l-0.2021,0.8115l-0.7983,0.3311
				l-0.7129-0.4268c-0.3848-0.2324-0.8789-0.1719-1.1953,0.1484l-1.5059,1.5137c-0.3154,0.3164-0.374,0.8076-0.1436,1.1914
				L32.3306,22l-0.3315,0.7988l-0.7886,0.1973c-0.4365,0.1084-0.7427,0.5-0.7412,0.9492l0.0078,2.1465
				c0.002,0.4463,0.3071,0.834,0.7412,0.9424l0.7808,0.1953l0.3315,0.7998l-0.4082,0.6777
				c-0.2319,0.3838-0.1709,0.8789,0.1484,1.1943l1.5283,1.5205c0.3169,0.3145,0.8076,0.374,1.1909,0.1426l0.6733-0.4023
				l0.7983,0.3301l0.1895,0.7588c0.1084,0.4346,0.4985,0.7412,0.9473,0.7412h2.1577c0.4482,0,0.8389-0.3066,0.9473-0.7412
				l0.1895-0.7588l0.7988-0.3301l0.6729,0.4023c0.3833,0.2314,0.874,0.1719,1.1914-0.1426l1.5283-1.5205
				c0.3184-0.3154,0.3799-0.8105,0.1479-1.1943l-0.4077-0.6777l0.3306-0.7998l0.7817-0.1953
				c0.4336-0.1084,0.7383-0.4961,0.7407-0.9424l0.0073-2.1465C46.4868,23.4961,46.1807,23.1045,45.7441,22.9961z M44.5269,25.3242
				l-0.521,0.1289c-0.3003,0.0742-0.5474,0.2871-0.666,0.5742l-0.709,1.709c-0.1177,0.2842-0.0938,0.6113,0.0659,0.875
				l0.2671,0.4463l-0.4458,0.4414l-0.4424-0.2646c-0.2651-0.1602-0.5908-0.1846-0.877-0.0664l-1.7085,0.707
				c-0.2861,0.1211-0.4985,0.3672-0.5737,0.668l-0.1235,0.4951h-0.6318l-0.1235-0.4961c-0.0747-0.2998-0.2871-0.5459-0.5737-0.667
				l-1.708-0.707c-0.2861-0.1182-0.6118-0.0957-0.877,0.0664L34.436,29.499l-0.4458-0.4414l0.2671-0.4463
				c0.1602-0.2637,0.1836-0.5908,0.0654-0.875l-0.708-1.709c-0.1187-0.2871-0.3652-0.5-0.666-0.5742l-0.5215-0.1289l-0.002-0.6191
				l0.5234-0.1309c0.3008-0.0732,0.5474-0.2871,0.666-0.5742l0.708-1.707c0.1182-0.2852,0.0947-0.6123-0.0654-0.877l-0.2861-0.4785
				l0.4287-0.4307l0.479,0.2881c0.2651,0.1582,0.5908,0.1836,0.877,0.0654l1.708-0.708c0.2866-0.1191,0.499-0.3662,0.5737-0.666
				l0.1372-0.5508h0.604l0.1367,0.5508c0.0752,0.2998,0.2881,0.5469,0.5742,0.666l1.708,0.708
				c0.2861,0.1182,0.6118,0.0928,0.877-0.0654l0.479-0.2881l0.4292,0.4307l-0.2861,0.4785
				c-0.1606,0.2646-0.1841,0.5918-0.0659,0.877L43.3389,24c0.1187,0.2871,0.3657,0.501,0.6665,0.5742l0.5234,0.1309L44.5269,25.3242
				z"/>
		</g>
	</g>
	<g>
		<g>
			<path fill="#03AEBB" d="M38.4771,13.4639c-2.333,0-4.5068,0.6992-6.3232,1.8945c-0.021,0.0137-0.042,0.0244-0.0625,0.0371
				L17.5649,24.707c-0.1494-1.9092-1.75-3.4189-3.6982-3.4189c-0.1587,0-0.3149,0.0127-0.4688,0.0322l3.5557-9.2734
				c0.0034-0.0078,0.0059-0.0176,0.0088-0.0273c0.3965-1,0.6152-2.0898,0.6152-3.2295c0-4.8467-3.9429-8.79-8.7886-8.79
				C3.9429,0,0,3.9434,0,8.79v32.9092c0,0.0918,0.0142,0.1826,0.0386,0.2676c0.1709,1.9922,1.0156,3.9375,2.5361,5.459
				c1.7134,1.7129,3.9639,2.5684,6.2148,2.5684c1.7461,0,3.4912-0.5176,4.9863-1.5479l11.3086-4.9756
				c0.4937-0.2188,0.7178-0.7949,0.501-1.2881c-0.2178-0.4941-0.7939-0.7178-1.2876-0.5l-7.5874,3.3389
				c0.9341-1.9434,1.1372-4.1934,0.501-6.3291c-0.1538-0.5166-0.6982-0.8115-1.2148-0.6553
				c-0.5166,0.1533-0.8115,0.6973-0.6567,1.2139c0.7183,2.4111,0.061,5.0146-1.7168,6.792c-2.6655,2.666-7.002,2.666-9.6675,0
				c-2.665-2.665-2.665-7.001,0-9.666c1.665-1.665,4.0332-2.3516,6.3345-1.8359c0.5259,0.1162,1.0483-0.2129,1.166-0.7402
				c0.1187-0.5264-0.2134-1.0488-0.7393-1.166c-2.9575-0.6621-6.0015,0.2207-8.1421,2.3604
				c-0.2217,0.2227-0.4287,0.4531-0.6216,0.6924V14.3066c1.6128,1.9941,4.0776,3.2715,6.8359,3.2715
				c1.6055,0,3.1118-0.4316,4.4077-1.1885l-2.7437,7.1563c-0.1909,0.4463-0.2969,0.9375-0.2969,1.4541
				c0,2.0449,1.6646,3.7109,3.7104,3.7109c0.8105,0,1.5596-0.2617,2.1699-0.7041c0.001,0,0.0015,0,0.0015,0l11.8721-7.6113
				c-0.6138,1.4072-0.9556,2.9609-0.9556,4.5928c0,5.6641,4.1089,10.3867,9.5029,11.3447l-5.0313,2.2129
				c-0.4941,0.2178-0.7188,0.7939-0.501,1.2881c0.1602,0.3652,0.5186,0.583,0.8945,0.583c0.1309,0,0.2642-0.0273,0.3926-0.083
				c0,0,11.0967-4.8848,11.126-4.9014C47.27,33.5967,50,29.6055,50,24.9883C50,18.6338,44.8311,13.4639,38.4771,13.4639z
				 M8.7891,15.625c-3.7695,0-6.8359-3.0664-6.8359-6.835s3.0664-6.8369,6.8359-6.8369c3.769,0,6.8354,3.0684,6.8354,6.8369
				S12.5581,15.625,8.7891,15.625z M13.8667,26.7568c-0.9688,0-1.7578-0.7881-1.7578-1.7568s0.7891-1.7578,1.7578-1.7578
				S15.6245,24.0313,15.6245,25S14.8354,26.7568,13.8667,26.7568z M38.4771,34.5576c-5.2764,0-9.5693-4.2939-9.5693-9.5693
				c0-5.2773,4.293-9.5713,9.5693-9.5713c5.2773,0,9.5703,4.2939,9.5703,9.5713C48.0474,30.2637,43.7544,34.5576,38.4771,34.5576z"
				/>
		</g>
	</g>
	<g>
		<g>
			<path fill="#03AEBB" d="M38.4771,22.0566c-1.6152,0-2.9292,1.3154-2.9292,2.9316c0,1.6152,1.314,2.9287,2.9292,2.9287
				c1.6157,0,2.9297-1.3135,2.9297-2.9287C41.4067,23.3721,40.0928,22.0566,38.4771,22.0566z M38.4771,25.9639
				c-0.5381,0-0.9766-0.4385-0.9766-0.9756c0-0.54,0.4385-0.9775,0.9766-0.9775c0.5386,0,0.9771,0.4375,0.9771,0.9775
				C39.4536,25.5254,39.0156,25.9639,38.4771,25.9639z"/>
		</g>
	</g>
	<g>
		<g>
			<path fill="#03AEBB" d="M28.7231,40.4141c-0.1816-0.1797-0.4336-0.2852-0.6904-0.2852s-0.5088,0.1055-0.6899,0.2852
				c-0.1816,0.1826-0.2866,0.4346-0.2866,0.6914c0,0.2588,0.105,0.5088,0.2866,0.6895c0.1812,0.1816,0.4331,0.2871,0.6899,0.2871
				s0.5088-0.1055,0.6904-0.2871c0.1816-0.1807,0.2861-0.4326,0.2861-0.6895S28.9048,40.5967,28.7231,40.4141z"/>
		</g>
	</g>
	<g>
		<g>
			<path fill="#03AEBB" d="M14.9429,34.9365l-0.0068-0.0068c-0.0049-0.0059-0.0098-0.0107-0.0151-0.0156
				c-0.0273-0.0264-0.0562-0.0508-0.0854-0.0742c-0.3906-0.3086-0.958-0.2754-1.3096,0.0898
				c-0.373,0.3896-0.3599,1.0078,0.0298,1.3828c0.0054,0.0049,0.0122,0.0098,0.0181,0.0166
				c0.1895,0.1826,0.4336,0.2744,0.6782,0.2744c0.2495,0,0.4985-0.0957,0.689-0.2861
				C15.3228,35.9365,15.3242,35.3184,14.9429,34.9365z"/>
		</g>
	</g>
	<g>
		<g>
			<path fill="#03AEBB" d="M8.7891,36.5225c-2.585,0-4.6875,2.1025-4.6875,4.6885c0,2.585,2.1025,4.6875,4.6875,4.6875
				c2.5845,0,4.687-2.1025,4.687-4.6875C13.4761,38.625,11.3735,36.5225,8.7891,36.5225z M8.7891,43.9443
				c-1.5073,0-2.7349-1.2266-2.7349-2.7334c0-1.5098,1.2275-2.7363,2.7349-2.7363s2.7339,1.2266,2.7339,2.7363
				C11.5229,42.7178,10.2964,43.9443,8.7891,43.9443z"/>
		</g>
	</g>
	<g>
		<g>
			<path fill="#03AEBB" d="M8.7891,40.2344H8.772c-0.54,0-0.9766,0.4365-0.9766,0.9766c0,0.5391,0.4365,0.9766,0.9766,0.9766h0.0171
				c0.5391,0,0.9761-0.4375,0.9761-0.9766C9.7651,40.6709,9.3281,40.2344,8.7891,40.2344z"/>
		</g>
	</g>
	<g>
		<g>
			<path fill="#03AEBB" d="M8.7891,4.1035c-2.585,0-4.6875,2.1016-4.6875,4.6865c0,2.584,2.1025,4.6865,4.6875,4.6865
				c2.5845,0,4.687-2.1025,4.687-4.6865C13.4761,6.2051,11.3735,4.1035,8.7891,4.1035z M8.7891,11.5244
				c-1.5073,0-2.7349-1.2266-2.7349-2.7344c0-1.5088,1.2275-2.7354,2.7349-2.7354s2.7339,1.2266,2.7339,2.7354
				C11.5229,10.2979,10.2964,11.5244,8.7891,11.5244z"/>
		</g>
	</g>
	<g>
		<g>
			<path fill="#03AEBB" d="M8.7891,7.8135H8.772c-0.54,0-0.9766,0.4365-0.9766,0.9766c0,0.5391,0.4365,0.9766,0.9766,0.9766h0.0171
				c0.5391,0,0.9761-0.4375,0.9761-0.9766C9.7651,8.25,9.3281,7.8135,8.7891,7.8135z"/>
		</g>
	</g>
</g>
</svg>
