<?xml version="1.0" encoding="utf-8"?>
<!-- Generator: Adobe Illustrator 16.0.0, SVG Export Plug-In . SVG Version: 6.00 Build 0)  -->
<!DOCTYPE svg PUBLIC "-//W3C//DTD SVG 1.1//EN" "http://www.w3.org/Graphics/SVG/1.1/DTD/svg11.dtd">
<svg version="1.1" id="Layer_1" xmlns="http://www.w3.org/2000/svg" xmlns:xlink="http://www.w3.org/1999/xlink" x="0px" y="0px"
	 width="42.2769px" height="50px" viewBox="0 0 42.2769 50" enable-background="new 0 0 42.2769 50" xml:space="preserve">
<g>
	<path fill="#03AEBB" d="M41.2441,34.9521c-0.5391,0-0.9766,0.4365-0.9766,0.9766v7.9697c0,2.2871-1.8613,4.1484-4.1484,4.1484
		H6.1016c-2.2871,0-4.1484-1.8613-4.1484-4.1484V19.7021c0-2.2881,1.8613-4.1494,4.1484-4.1494h11.1299l0.7334,13.0908h-5.127
		v-5.4473c0-1.6162-1.3145-2.9297-2.9316-2.9297c-0.7822,0-1.5186,0.3037-2.0703,0.8564c-0.5547,0.5527-0.8604,1.2891-0.8604,2.0732
		v17.2139c0,1.6162,1.3154,2.9316,2.9307,2.9316c1.5986,0,2.9316-1.334,2.9316-2.9316v-5.9043h5.3086v5.9043
		c0,1.6162,1.3145,2.9316,2.9307,2.9316c1.5986,0,2.9316-1.334,2.9316-2.9316v-5.9043h5.3076v5.9043
		c0,1.6162,1.3145,2.9316,2.9316,2.9316c1.5977,0,2.9307-1.334,2.9307-2.9316V23.1963c0-1.6162-1.3145-2.9297-2.9307-2.9297
		c-0.7852,0-1.5215,0.3037-2.0723,0.8564c-0.5547,0.5527-0.8594,1.2891-0.8594,2.0732v5.4473h-5.1191l0.7656-13.0908H36.124
		c2.2852,0.0029,4.1436,1.8643,4.1436,4.1494v7.6338c0,0.54,0.4375,0.9766,0.9766,0.9766c0.54,0,0.9766-0.4365,0.9766-0.9766
		v-7.6338c0-3.3604-2.7334-6.0986-6.0957-6.1025H25.0762l0.1377-2.3389c0.7178-0.8066,1.1553-1.8682,1.1553-3.0293V4.5615
		C26.3691,2.0459,24.3223,0,21.8076,0h-1.3936c-2.5156,0-4.5625,2.0459-4.5625,4.5615v3.6699c0,1.1514,0.4307,2.2051,1.1377,3.0088
		l0.1328,2.3594H6.1016C2.7373,13.5996,0,16.3379,0,19.7021v24.1963C0,47.2627,2.7373,50,6.1016,50h30.0176
		c3.3643,0,6.1016-2.7373,6.1016-6.1016v-7.9697C42.2207,35.3887,41.7832,34.9521,41.2441,34.9521L41.2441,34.9521z
		 M19.2871,12.6514c0.8203,0.208,1.707,0.1484,2.5469,0.1416c0.4551-0.0049,0.9111-0.0742,1.3457-0.2109l-0.9932,16.9756
		c-0.042,0.6689-0.0781,1.3389-0.1172,2.0078c-0.0088,0.1533-0.0195,0.3311-0.0498,0.4805
		c-0.0918,0.4453-0.4707,0.7646-0.9424,0.7646c-0.2705,0-0.5322-0.1143-0.7158-0.3125c-0.209-0.2246-0.249-0.4805-0.2676-0.7734
		l-0.1201-2.1592l-0.001-0.0088L19.5605,22.21l-0.4307-7.6885l0,0l-0.1094-1.9453C19.1084,12.6045,19.1973,12.6289,19.2871,12.6514
		L19.2871,12.6514z M11.8613,32.5527c-0.5391,0-0.9766,0.4375-0.9766,0.9766v6.8809c0,0.5332-0.4453,0.9785-0.9785,0.9785
		c-0.5391,0-0.9775-0.4395-0.9775-0.9785V23.1963c0-0.2617,0.1016-0.5068,0.2861-0.6914c0.1855-0.1846,0.4316-0.2861,0.6924-0.2861
		c0.5391,0,0.9775,0.4385,0.9775,0.9775v6.4238c0,0.5391,0.4375,0.9766,0.9766,0.9766h6.2139
		c0.0166,0.2861,0.0322,0.5732,0.0479,0.8594c0.0215,0.3662,0.0215,0.7393,0.1123,1.0967H11.8613L11.8613,32.5527z M22.0557,40.4102
		c0,0.5322-0.4463,0.9785-0.9785,0.9785c-0.5391,0-0.9775-0.4395-0.9775-0.9785v-5.8135c0.627,0.2227,1.3281,0.2227,1.9551,0v5.8135
		H22.0557z M30.293,30.5967c0.5391,0,0.9766-0.4375,0.9766-0.9766v-6.4238c0-0.2617,0.1016-0.5068,0.2871-0.6924
		c0.1836-0.1836,0.4297-0.2852,0.6914-0.2852c0.5391,0,0.9775,0.4385,0.9775,0.9775v17.2139c0,0.5322-0.4453,0.9785-0.9775,0.9785
		c-0.54,0-0.9785-0.4395-0.9785-0.9785v-6.8809c0-0.5391-0.4375-0.9766-0.9766-0.9766h-6.374
		c0.0869-0.3438,0.0898-0.7002,0.1104-1.0527c0.0176-0.3008,0.0352-0.6025,0.0527-0.9033H30.293L30.293,30.5967z M17.8057,4.5615
		c0-1.4385,1.1699-2.6084,2.6084-2.6084h1.3936c1.4385,0,2.6084,1.1699,2.6084,2.6084v3.6699c0,1.0781-0.6582,2.0059-1.5938,2.4023
		c-0.5283,0.2354-1.0957,0.2061-1.6582,0.2061c-0.5566,0-1.1162,0.0352-1.6504-0.1602c-0.9961-0.3672-1.709-1.3262-1.709-2.4482
		V4.5615H17.8057z"/>
	<path fill="#03AEBB" d="M9.042,18.7246c0.2979,0.4414,0.9102,0.5664,1.3545,0.2705c0.4434-0.2959,0.5625-0.9111,0.2695-1.3545
		c-0.2939-0.4443-0.9121-0.5625-1.3535-0.2695C8.8691,17.665,8.748,18.2832,9.042,18.7246L9.042,18.7246z"/>
	<path fill="#03AEBB" d="M10.2275,44.5088c-0.8193-0.3418-1.6396,0.5518-1.2451,1.3408c0.1855,0.3701,0.6045,0.5898,1.0156,0.5273
		c0.4131-0.0635,0.7451-0.3877,0.8184-0.7988C10.8945,45.1348,10.6445,44.6797,10.2275,44.5088L10.2275,44.5088z"/>
	<path fill="#03AEBB" d="M33.2656,17.6406c-0.2959-0.4434-0.9102-0.5635-1.3535-0.2695c-0.4424,0.2939-0.5664,0.9131-0.2705,1.3545
		c0.2959,0.4424,0.9121,0.5635,1.3545,0.2695C33.4414,18.6992,33.5566,18.085,33.2656,17.6406L33.2656,17.6406z"/>
	<path fill="#03AEBB" d="M32.8271,44.5088c-0.8193-0.3408-1.6416,0.5518-1.2451,1.3408c0.1865,0.3701,0.6035,0.5898,1.0156,0.5273
		c0.4131-0.0635,0.7441-0.3877,0.8184-0.7988C33.4941,45.1348,33.2441,44.6797,32.8271,44.5088z"/>
	<path fill="#03AEBB" d="M21.9219,44.8691c-0.4795-0.7324-1.6475-0.4609-1.7773,0.3984c-0.1318,0.8809,0.9434,1.4609,1.6094,0.8779
		C22.1182,45.8262,22.1895,45.2715,21.9219,44.8691L21.9219,44.8691z"/>
	<path fill="#03AEBB" d="M42.2578,31.5361c-0.1621-0.8613-1.3496-1.0566-1.7939-0.3115c-0.2129,0.3584-0.1738,0.8232,0.0977,1.1396
		c0.2676,0.3105,0.7119,0.4199,1.0938,0.2725C42.0889,32.4668,42.3506,31.9941,42.2578,31.5361z"/>
</g>
</svg>
