<?xml version="1.0" encoding="utf-8"?>
<!-- Generator: Adobe Illustrator 16.0.0, SVG Export Plug-In . SVG Version: 6.00 Build 0)  -->
<!DOCTYPE svg PUBLIC "-//W3C//DTD SVG 1.1//EN" "http://www.w3.org/Graphics/SVG/1.1/DTD/svg11.dtd">
<svg version="1.1" id="Layer_1" xmlns="http://www.w3.org/2000/svg" xmlns:xlink="http://www.w3.org/1999/xlink" x="0px" y="0px"
	 width="60.5117px" height="50px" viewBox="0 0 60.5117 50" enable-background="new 0 0 60.5117 50" xml:space="preserve">
<g>
	<path fill="#03AEBB" d="M47.2588,12.1416c3.3457,0,6.0703-2.7227,6.0703-6.0703C53.3291,2.7227,50.6045,0,47.2588,0
		c-3.3486,0-6.0713,2.7227-6.0713,6.0713C41.1875,9.4189,43.9102,12.1416,47.2588,12.1416z M47.2588,2.249
		c2.1074,0,3.8223,1.7139,3.8223,3.8223s-1.7148,3.8223-3.8223,3.8223c-2.1084,0-3.8232-1.7139-3.8232-3.8223
		S45.1504,2.249,47.2588,2.249z"/>
	<path fill="#03AEBB" d="M44.8164,12.2871c-2.6475-0.6621-5.4463,0.5313-6.8008,2.9033l-5.5215,9.6611l-0.3789-1.04v-0.002
		c-0.3887-1.0654-1.4121-1.7813-2.5449-1.7813c-0.8838,0-1.7139,0.4307-2.2197,1.1543c-0.5068,0.7227-0.6279,1.6494-0.3271,2.4795
		l0.9326,2.5645c-0.1133-0.0244-0.2275-0.0391-0.3389-0.0781l-7.9375-2.6436c-2.8584-0.9541-5.9912,0.0264-7.7949,2.4355
		L0.9238,42.5537c-1.3809,1.8408-1.1943,4.4551,0.4316,6.083C2.2334,49.5137,3.4141,50,4.6445,50
		c0.127,0,0.2559-0.0049,0.3857-0.0166c1.3652-0.1133,2.6064-0.8174,3.4033-1.9326l9-12.5996
		c0.4775-0.6729,1.375-0.9258,2.1396-0.5996l10.5078,4.5049c0.6777,0.291,1.3916,0.4492,2.1182,0.5361l1.874,5.1582
		c0.3896,1.0645,1.4121,1.7822,2.5459,1.7822c0.8828,0,1.7129-0.4326,2.2197-1.1563c0.5068-0.7217,0.6289-1.6484,0.3262-2.4785
		l-1.6807-4.623c0.8691-0.6133,1.6191-1.3984,2.168-2.3135l8.9307-14.8838c1.0088-1.6797,1.1553-3.6816,0.4063-5.4932
		C48.2383,14.0732,46.7178,12.7627,44.8164,12.2871z M30.9678,37.29L20.459,32.7861c-1.7227-0.7354-3.7676-0.168-4.8555,1.3584
		l-8.999,12.5996c-0.4111,0.5762-1.0537,0.9404-1.7598,0.999c-0.7012,0.0596-1.3975-0.1953-1.8994-0.6963
		c-0.8408-0.8418-0.9375-2.1934-0.2236-3.1436l10.9609-14.6143c1.2236-1.6357,3.3496-2.2988,5.2861-1.6523l7.9355,2.6455
		c0.6143,0.2041,1.248,0.2744,1.8926,0.2568l2.4932,6.8564C31.1836,37.3564,31.0723,37.335,30.9678,37.29z M36.998,44.3877
		c-0.0527,0.0732-0.1699,0.1963-0.3789,0.1963c-0.1934,0-0.3672-0.1221-0.4336-0.3037l-7.0488-19.3867
		c-0.0713-0.1953,0.0039-0.3477,0.0547-0.4209c0.0527-0.0732,0.1699-0.1963,0.3789-0.1963c0.1934,0,0.3672,0.123,0.4326,0.3037
		l7.0508,19.3857C37.123,44.1621,37.0488,44.3135,36.998,44.3877z M46.6563,20.2227l-8.9316,14.8828
		c-0.2813,0.4688-0.6406,0.8867-1.0469,1.249l-3.1768-8.7344l6.4658-11.3145c0.8574-1.501,2.6289-2.2549,4.3057-1.8369
		c1.2031,0.3008,2.165,1.1299,2.6406,2.2764C47.3867,17.8906,47.2939,19.1582,46.6563,20.2227z"/>
	<path fill="#03AEBB" d="M59.2725,7.3486c-1.2881-0.9688-3.1318-0.7793-4.1982,0.4307l-4.2207,4.7959
		c-0.5703,0.6484-0.8457,1.5107-0.7578,2.3682c0.0879,0.8584,0.5342,1.6465,1.2236,2.165c0.5527,0.416,1.208,0.6182,1.8604,0.6182
		c0.8672,0,1.7285-0.3584,2.3369-1.0479l4.2217-4.7969c0.5693-0.6475,0.8457-1.5117,0.7578-2.3691S59.9629,7.8662,59.2725,7.3486z
		 M58.0508,10.3975l-4.2227,4.7949c-0.2939,0.3359-0.8027,0.3877-1.1582,0.1191c-0.1934-0.1445-0.3125-0.3564-0.3379-0.5977
		c-0.0234-0.2393,0.0508-0.4727,0.21-0.6533l4.2217-4.7969c0.168-0.1904,0.4043-0.2891,0.6445-0.2891
		c0.1797,0,0.3613,0.0557,0.5137,0.1719c0.1934,0.1436,0.3125,0.3555,0.3379,0.5967C58.2842,9.9834,58.209,10.2158,58.0508,10.3975z
		"/>
</g>
</svg>
