<?xml version="1.0" encoding="utf-8"?>
<!-- Generator: Adobe Illustrator 22.0.0, SVG Export Plug-In . SVG Version: 6.00 Build 0)  -->
<svg version="1.1" id="Layer_1" xmlns="http://www.w3.org/2000/svg" xmlns:xlink="http://www.w3.org/1999/xlink" x="0px" y="0px"
	 viewBox="0 0 185.5 57.3" style="enable-background:new 0 0 185.5 57.3;" xml:space="preserve">
<style type="text/css">
	.st0{fill:#FFFFFF;}
</style>
<g>
	<path class="st0" d="M24.7,45.8V12.3h5.7v28.2h15.3v5.4H24.7z"/>
	<path class="st0" d="M79,41.2c-3.4,3.3-7.6,5-12.6,5c-5,0-9.2-1.7-12.6-5c-3.4-3.3-5.1-7.4-5.1-12.4c0-4.9,1.7-9.1,5.1-12.4
		c3.4-3.3,7.6-5,12.6-5c5,0,9.2,1.7,12.6,5c3.4,3.3,5.1,7.4,5.1,12.4C84.1,33.8,82.4,37.9,79,41.2z M74.9,20.2
		c-2.3-2.4-5.1-3.6-8.4-3.6c-3.3,0-6.1,1.2-8.4,3.6c-2.3,2.4-3.4,5.2-3.4,8.6c0,3.4,1.1,6.2,3.4,8.6c2.3,2.4,5.1,3.6,8.4,3.6
		c3.3,0,6.1-1.2,8.4-3.6c2.3-2.4,3.4-5.2,3.4-8.6C78.3,25.5,77.2,22.6,74.9,20.2z"/>
	<path class="st0" d="M114.5,29.5h5.7V41c-3.2,3.5-7.7,5.2-13.6,5.2c-5,0-9.1-1.6-12.5-4.9c-3.3-3.3-5-7.4-5-12.4s1.7-9.2,5.1-12.5
		c3.4-3.3,7.5-5,12.4-5s8.8,1.4,12,4.2l-3,4.3c-1.3-1.1-2.6-1.9-4-2.3c-1.3-0.4-2.9-0.6-4.6-0.6c-3.4,0-6.2,1.1-8.5,3.3
		C96.2,22.5,95,25.4,95,29c0,3.6,1.1,6.4,3.4,8.6c2.2,2.2,5,3.2,8.1,3.2c3.2,0,5.8-0.7,8-2.1V29.5z"/>
	<path class="st0" d="M155.7,41.2c-3.4,3.3-7.6,5-12.6,5s-9.2-1.7-12.6-5c-3.4-3.3-5.1-7.4-5.1-12.4c0-4.9,1.7-9.1,5.1-12.4
		c3.4-3.3,7.6-5,12.6-5s9.2,1.7,12.6,5c3.4,3.3,5.1,7.4,5.1,12.4C160.8,33.8,159.1,37.9,155.7,41.2z M151.5,20.2
		c-2.3-2.4-5.1-3.6-8.4-3.6c-3.3,0-6.1,1.2-8.4,3.6c-2.3,2.4-3.4,5.2-3.4,8.6c0,3.4,1.1,6.2,3.4,8.6c2.3,2.4,5.1,3.6,8.4,3.6
		c3.3,0,6.1-1.2,8.4-3.6c2.3-2.4,3.4-5.2,3.4-8.6C155,25.5,153.8,22.6,151.5,20.2z"/>
</g>
</svg>
