<?xml version="1.0" encoding="utf-8"?>
<!-- Generator: Adobe Illustrator 16.0.0, SVG Export Plug-In . SVG Version: 6.00 Build 0)  -->
<!DOCTYPE svg PUBLIC "-//W3C//DTD SVG 1.1//EN" "http://www.w3.org/Graphics/SVG/1.1/DTD/svg11.dtd">
<svg version="1.1" id="Layer_1" xmlns="http://www.w3.org/2000/svg" xmlns:xlink="http://www.w3.org/1999/xlink" x="0px" y="0px"
	 width="67.4287px" height="68px" viewBox="0 0 67.4287 68" enable-background="new 0 0 67.4287 68" xml:space="preserve">
<g>
	<path fill="#FF9933" d="M61.0605,6.9194l-0.1045-0.2383l-0.2363-0.1016C51.7246,2.2764,42.3076,0,33.4834,0
		c-9.4629,0-18.543,2.0356-26.9727,6.0747L6.2813,6.1841L6.1641,6.417C2.0791,15.1099,0,24.23,0,33.5347
		C0,42.856,2.1641,52.377,6.2539,61.0859l0.1104,0.2339l0.2246,0.1099C15.7031,65.7959,24.835,68,33.7109,68
		c9.4219,0,18.7852-2.0957,27.0898-6.0645l0.2373-0.1108l0.1025-0.2231c4.1797-8.8701,6.2881-17.9956,6.2881-27.126
		C67.4287,25.3145,65.2275,15.7876,61.0605,6.9194"/>
	<g>
		<g>
			<path fill-rule="evenodd" clip-rule="evenodd" fill="#FFFFFF" d="M20.8662,20.5332c-0.0254,0.2998,0.0264,0.5396,0.29,0.7256
				c0.4229,0.2969,0.6016,0.752,0.7227,1.231c0.4043,1.5698,0.8047,3.1401,1.2061,4.7134c0.0518,0.2002,0.0967,0.4043,0.1289,0.6113
				c0.0928,0.6123,0.0215,1.1729-0.5967,1.4902c-0.7471,0.3804-1.5225,0.3101-1.9443-0.3262
				c-0.457-0.6929-1.0029-1.2622-1.6016-1.8301c-0.8418-0.7988-0.9082-2.2021-0.292-3.21c0.1445-0.2378,0.1826-0.4575,0.1543-0.7197
				c-0.0811-0.7524,0.0264-1.4404,0.7148-1.9058c0.2715-0.1841,0.2637-0.4683,0.2822-0.7432"/>
			<path fill-rule="evenodd" clip-rule="evenodd" fill="#FFFFFF" d="M47.4883,20.4873c0.0215,0.3887,0.0947,0.6938,0.4385,0.9536
				c0.5322,0.3999,0.6123,1.0146,0.5605,1.6357c-0.0273,0.3589,0.0381,0.6621,0.2285,0.9829
				c0.7266,1.2134,0.2529,2.8877-0.9912,3.6167c-0.0986,0.0576-0.252,0.0933-0.2881,0.1797
				c-0.6953,1.6401-2.3711,2.4136-3.3389,3.8735c-1.8281,2.7568-4.5146,4.4033-7.8682,4.8125
				c-0.2871,0.0347-0.5195,0.1348-0.748,0.3198c-0.9092,0.7407-1.9219,0.7114-2.9434,0.3037
				c-0.4463-0.1782-0.7979-0.5024-0.7842-1.0425c0.0127-0.5054,0.3564-0.7891,0.7617-0.9956
				c0.96-0.4912,2.3623-0.3091,3.1025,0.4453c0.2734,0.2788,0.5381,0.2983,0.873,0.2466c2.6885-0.4058,4.8662-1.7227,6.6191-3.7598
				c0.6104-0.7119,1.2979-1.3945,1.4961-2.3804c0.0381-0.1904,0.0801-0.3589-0.0635-0.5186
				c-0.4619-0.5098-0.4072-1.0972-0.2549-1.7065c0.4238-1.6816,0.8486-3.3667,1.2783-5.0498
				c0.0801-0.314,0.1406-0.689,0.4092-0.8628c0.7236-0.4717,0.5791-1.1348,0.4854-1.8008"/>
			<g>
				<path fill="#FFFFFF" d="M33.7139,7.8721c-7.666,0-13.9043,6.5088-13.9502,14.5264c0.2529-0.0645,0.5205-0.1089,0.8193-0.1089
					c0.167,0,0.3164,0.0273,0.4688,0.0459c0.0771-7.2788,5.7256-13.1768,12.6621-13.1768c6.9863,0,12.6689,5.9785,12.6689,13.3296
					c0,7.2939-5.5986,13.2334-12.5127,13.3213c-0.0215,0.4473-0.126,0.8867-0.3145,1.2881c0.0518,0,0.1055,0.0059,0.1582,0.0059
					c7.6943,0,13.9561-6.5576,13.9561-14.6152C47.6699,14.4297,41.4082,7.8721,33.7139,7.8721z"/>
			</g>
		</g>
		<path fill="#FFFFFF" d="M43.251,21.04c-0.4775-4.7925-4.6582-8.5474-9.5146-8.5474c-0.5869,0-1.1758,0.0581-1.75,0.1714
			c-4.0664,0.7959-6.7148,3.2915-7.6572,7.2163c-0.9316,3.8765,0.3037,7.2959,3.6416,9.8999c0,0.002-0.0029,0.0376-0.041,0.1382
			c-0.3857,1.0215-1.042,1.8579-2.0547,2.6318c-0.208,0.1553-0.2471,0.4277-0.1797,0.6772c0.0635,0.25,0.3232,0.4453,0.5801,0.4829
			c0.0869,0.0122,0.1748,0.0234,0.2607,0.0234l0.124-0.0063c2.667-0.3018,4.6279-0.8506,6.3535-1.7803
			c0.3438-0.1855,0.6611-0.2734,1.0283-0.2842c2.6602-0.0723,5.0928-1.2144,6.8506-3.2124
			C42.6631,26.4399,43.5225,23.7412,43.251,21.04z M29.3047,23.7002c-0.8809,0.0015-1.5938-0.7095-1.5957-1.5854
			c-0.0039-0.8887,0.6953-1.5967,1.5801-1.6021c0.9365-0.0068,1.6494,0.6987,1.6328,1.6172
			C30.9063,23.0063,30.1934,23.7002,29.3047,23.7002z M33.627,23.6953c-0.8711-0.0166-1.5928-0.7593-1.5693-1.6187
			c0.0205-0.8936,0.7236-1.5747,1.6182-1.5679c0.8906,0.0059,1.5986,0.7026,1.6084,1.5791
			C35.293,22.9751,34.5352,23.7119,33.627,23.6953z M38.0215,23.6968c-0.8945,0.0034-1.583-0.6807-1.5859-1.5781
			c-0.0049-0.9248,0.709-1.6328,1.6279-1.6099c0.8945,0.0239,1.5576,0.7124,1.5508,1.6167
			C39.6074,23.0269,38.9297,23.6968,38.0215,23.6968z"/>
	</g>
</g>
</svg>
